/* XPM */
static char * about_xpm[] = {
"16 16 90 1",
" 	c None",
".	c #4D78BD",
"+	c #4B75BB",
"@	c #537CBF",
"#	c #80A3D5",
"$	c #97B7E0",
"%	c #ACCAEB",
"&	c #ADCAEB",
"*	c #98B8E1",
"=	c #83A5D7",
"-	c #547DC0",
";	c #4972B8",
">	c #698EC8",
",	c #ABCAEC",
"'	c #94BDE9",
")	c #84B3E6",
"!	c #76AAE3",
"~	c #75AAE3",
"{	c #83B3E6",
"]	c #92BCE9",
"^	c #ACCAED",
"/	c #6E93CB",
"(	c #698DC7",
"_	c #9EC2EA",
":	c #6EA4E0",
"<	c #69A1DF",
"[	c #3F88C4",
"}	c #6DA3E0",
"|	c #9CC1EA",
"1	c #6D91C9",
"2	c #466EB5",
"3	c #4A71B6",
"4	c #94B9E5",
"5	c #659EDD",
"6	c #649DDD",
"7	c #FFFFFF",
"8	c #93B9E6",
"9	c #4E75B8",
"0	c #7799CE",
"a	c #649CDB",
"b	c #5E98DA",
"c	c #629ADB",
"d	c #7698CE",
"e	c #3B60A9",
"f	c #749FD7",
"g	c #5893D7",
"h	c #3982C1",
"i	c #76A1D8",
"j	c #375AA5",
"k	c #6197D7",
"l	c #528DD4",
"m	c #F7FAFC",
"n	c #5F95D7",
"o	c #3355A0",
"p	c #4C86CF",
"q	c #4B87D0",
"r	c #4C87D0",
"s	c #2F509C",
"t	c #437BC5",
"u	c #4481CD",
"v	c #437BC7",
"w	c #3F6AB5",
"x	c #3E7BCA",
"y	c #3F6CB8",
"z	c #2B4A98",
"A	c #2E4E9B",
"B	c #3774C5",
"C	c #3876C7",
"D	c #F6F9FC",
"E	c #3875C6",
"F	c #2D4E9B",
"G	c #244090",
"H	c #2B53A3",
"I	c #3271C4",
"J	c #2A54A5",
"K	c #203C8C",
"L	c #254EA0",
"M	c #2C6BC0",
"N	c #2D6DC2",
"O	c #2D6BC0",
"P	c #2550A2",
"Q	c #1D3889",
"R	c #1F3D8E",
"S	c #2353A7",
"T	c #2762B9",
"U	c #2969C0",
"V	c #2863B9",
"W	c #2454A8",
"X	c #1F3E90",
"Y	c #1B3586",
"      ....      ",
"   +@#$%&*=-+   ",
"  ;>,')!~{]^/;  ",
"  (_:<<[[<<}|12 ",
" 34566677666689 ",
" 0abbbb77bbbbcd ",
"efggggghhgggggie",
"jklllllmmlllllnj",
"opqqqqqmmqqqqqro",
"stuuuuummuuuuuvs",
" wxxxxxmmxxxxxyz",
" ABCCCCDDCCCCEF ",
" GHIIIIIIIIIIJG ",
"  KLMNNNNNNOPK  ",
"   QRSTUUVWXQ   ",
"     YYYYYY     "};
