/* XPM */
static char * cladogram_slanted_xpm[] = {
"16 16 3 1",
" 	c None",
".	c #22567A",
"+	c #CAD6E1",
"                ",
"             .  ",
"           ..+  ",
"         ..++   ",
"       ..++..   ",
"     ..++  ++.  ",
"   ..++      +  ",
"  .++           ",
"  +..           ",
"   ++..      .  ",
"     ++..  ..+  ",
"       ++..++   ",
"         ++..   ",
"           ++.  ",
"             +  ",
"                "};
