/* XPM */
static char * cladogram_rect_xpm[] = {
"16 16 3 1",
" 	c None",
".	c #225478",
"+	c #CAD6E1",
"                ",
"         .....  ",
"         .++++  ",
"  ........      ",
"  .++++++.      ",
"  .      .....  ",
"  .      +++++  ",
"  .             ",
"  .      .....  ",
"  .      .++++  ",
"  ........      ",
"  +++++++.      ",
"         .....  ",
"         +++++  ",
"                ",
"                "};
