/* XPM */
static char * colour_map_xpm[] = {
"16 16 12 1",
" 	c None",
".	c #6C6D6D",
"+	c #313131",
"@	c #F98B06",
"#	c #F7D417",
"$	c #A4C6D1",
"%	c #8B9BFC",
"&	c #8E7ADF",
"*	c #D15939",
"=	c #88BBF0",
"-	c #2D9B86",
";	c #118842",
"                ",
"                ",
" .+++.+++.+++.  ",
" +@@@+###+$$$+  ",
" +@@@+###+$$$+  ",
" +@@@+###+$$$+  ",
" .+++.+++.+++.  ",
" +%%%+&&&+***+  ",
" +%%%+&&&+***+  ",
" +%%%+&&&+***+  ",
" .+++.+++.+++.  ",
" +===+---+;;;+  ",
" +===+---+;;;+  ",
" +===+---+;;;+  ",
" .+++.+++.+++.  ",
"                "};
