/* XPM */
static char * overview_tree_xpm[] = {
"16 16 76 1",
" 	c None",
".	c #8DB1DD",
"+	c #7BA7DC",
"@	c #7AA6DC",
"#	c #7AA4DA",
"$	c #79A2D8",
"%	c #76A0D5",
"&	c #759ED4",
"*	c #739DD2",
"=	c #729ACF",
"-	c #7099CE",
";	c #6F96CB",
">	c #6C94C9",
",	c #7A9AC4",
"'	c #85ACDD",
")	c #92B9E8",
"!	c #6F90C1",
"~	c #668BC0",
"{	c #7AA4DB",
"]	c #FFFFFF",
"^	c #6387BD",
"/	c #79A3D9",
"(	c #B6B6B6",
"_	c #BBBBBB",
":	c #EDF3F7",
"<	c #EAEFF6",
"[	c #E7EBF5",
"}	c #E4EAF3",
"|	c #DEE7F2",
"1	c #6085BA",
"2	c #F1F6FB",
"3	c #EEF4F8",
"4	c #EBF2F7",
"5	c #EAF0F7",
"6	c #E8ECF6",
"7	c #5E81B7",
"8	c #F4F8FB",
"9	c #F3F7FB",
"0	c #F2F5FB",
"a	c #EFF3FA",
"b	c #ECF2F8",
"c	c #5C7EB5",
"d	c #F3F3F3",
"e	c #F7F9FB",
"f	c #F5F9FB",
"g	c #F2F7FB",
"h	c #5A7CB2",
"i	c #739CD1",
"j	c #F8FDFD",
"k	c #F9FBFB",
"l	c #F7FAFB",
"m	c #F6FAFB",
"n	c #587AB0",
"o	c #6F97CC",
"p	c #FAFDFD",
"q	c #F7FCFC",
"r	c #F6FBFB",
"s	c #5475AC",
"t	c #6E94CA",
"u	c #FCFEFE",
"v	c #FAFEFE",
"w	c #F9FCFC",
"x	c #5373AA",
"y	c #6C92C8",
"z	c #5172A9",
"A	c #5171A9",
"B	c #688EC3",
"C	c #6488BE",
"D	c #6185BB",
"E	c #5F83B9",
"F	c #5C7EB4",
"G	c #587BB1",
"H	c #5779AE",
"I	c #5676AD",
"J	c #5475AB",
"K	c #5373A9",
"                ",
" .+@#$%&*=-;>,  ",
"')))))))))))))! ",
"++++++++++++++~ ",
"{]]]]]+]]]]]]]^ ",
"/](_]]+]:<[}|]1 ",
"$]_]]]+]23456]7 ",
"%]___]+]890ab]c ",
"&]d_]]+]ef8g0]h ",
"i]d__]+]jklm8]n ",
"o]d_]]+]pppqr]s ",
"t]d__]+]uuvvw]x ",
"y]]]]]+]]]]]]]z ",
"AB~CDEFhGHIJKAA ",
"                ",
"                "};
