/* XPM */
static char * settings_xpm[] = {
"16 16 64 1",
" 	c None",
".	c #A1A1A1",
"+	c #9D9D9D",
"@	c #F4F4F4",
"#	c #999999",
"$	c #B7B7B7",
"%	c #B9B9B9",
"&	c #CFCFCF",
"*	c #DBDBDB",
"=	c #A0A0A0",
"-	c #B8B8B8",
";	c #B4B4B4",
">	c #ECECEC",
",	c #E4E4E4",
"'	c #E5E5E5",
")	c #D7D7D7",
"!	c #C8C8C8",
"~	c #EDEDED",
"{	c #989898",
"]	c #D2D2D2",
"^	c #CBCBCB",
"/	c #C2C2C2",
"(	c #BEBEBE",
"_	c #A9A9A9",
":	c #C6C6C6",
"<	c #A3A3A3",
"[	c #8E8E8E",
"}	c #818181",
"|	c #B5B5B5",
"1	c #9F9F9F",
"2	c #7A7A7A",
"3	c #E6E6E6",
"4	c #B3B3B3",
"5	c #B6B6B6",
"6	c #737373",
"7	c #CACACA",
"8	c #B0B0B0",
"9	c #7C7C7C",
"0	c #6C6C6C",
"a	c #A2A2A2",
"b	c #848484",
"c	c #A4A4A4",
"d	c #A8A8A8",
"e	c #C9C9C9",
"f	c #858585",
"g	c #686868",
"h	c #A5A5A5",
"i	c #9B9B9B",
"j	c #ACACAC",
"k	c #DCDCDC",
"l	c #6A6A6A",
"m	c #868686",
"n	c #919191",
"o	c #979797",
"p	c #545454",
"q	c #797979",
"r	c #5D5D5D",
"s	c #6E6E6E",
"t	c #929292",
"u	c #6F6F6F",
"v	c #5B5B5B",
"w	c #767676",
"x	c #505050",
"y	c #4C4C4C",
"      ....      ",
"      +@@+      ",
"  #$.%&**&%=-#  ",
"  ;>,')!!)',~;  ",
"  {]^!/((/!^]{  ",
"  _:-%<[[<%-:_  ",
"}}/(|1}  }1|(/}}",
"23!45}    }54!32",
"678_%9    9%_876",
"00{<;a0  0.|<{00",
"  bcde.66aedcf  ",
"  ghij!kk!jihl  ",
"  m_no.__.{n_b  ",
"  pqrs}tt}uvwp  ",
"      x{{x      ",
"      yyyy      "};
